<svg xmlns="http://www.w3.org/2000/svg" viewBox="0 0 1000 1000" id="stool">
  <path d="M500 812.29c-31.31 0-56.77-26.95-56.77-60.07v-251a16 16 0 0132 0v251c0 15.48 11.11 28.07 24.77 28.07s24.76-12.59 24.76-28.07v-251a16 16 0 0132 0v251C556.76 785.34 531.3 812.29 500 812.29zM745.37 916c-30.35 0-55.24-27.62-56.69-62.89-.08-1.59-.22-3.1-.41-4.52 0-.09 0-.19 0-.29L644.89 480.68a16 16 0 1131.78-3.75L720 844.42c.31 2.3.52 4.73.64 7.21a.49.49 0 010 .12c.72 17.78 11.81 32.25 24.72 32.25a18.65 18.65 0 009.88-2.92c10.17-6.29 16-22 13.89-37.23a2.91 2.91 0 000-.31L721.47 445.32a16 16 0 0131.77-3.8l47.62 398.07c3.85 28.09-7.71 55.69-28.81 68.72A50.9 50.9 0 01745.37 916zM254.62 916A50.73 50.73 0 01228 908.31c-21.11-13-32.68-40.63-28.8-68.72l47.59-398.07a16 16 0 0131.78 3.8L230.9 843.54c0 .11 0 .21 0 .32-2.14 15.28 3.71 30.93 13.9 37.22a18.55 18.55 0 009.86 2.92c12.92 0 24-14.47 24.74-32.25.09-2.37.3-4.85.64-7.33l43.34-367.49a16 16 0 0131.78 3.75L311.76 848.3l0 .29c-.21 1.52-.34 3-.4 4.42C309.91 888.34 285 916 254.62 916zM500 431.94c-83.72 0-162.68-17.07-222.33-48.07C214.7 351.15 180 306.43 180 258s34.69-93.17 97.66-125.9C337.32 101.07 416.28 84 500 84s162.68 17.07 222.33 48.07C785.3 164.8 820 209.51 820 258s-34.69 93.18-97.66 125.9C662.68 414.87 583.72 431.94 500 431.94zM500 116c-78.68 0-152.39 15.79-207.57 44.47C240.57 187.41 212 222 212 258s28.56 70.56 80.42 97.51c55.18 28.67 128.89 44.46 207.57 44.46s152.39-15.79 207.57-44.46C759.43 328.53 788 293.9 788 258s-28.56-70.56-80.42-97.5C652.39 131.79 578.68 116 500 116z"></path>
  <path d="M500,518.69c-83.72,0-162.68-17.07-222.33-48.07-63-32.73-97.65-77.44-97.65-125.9v-90.8a16,16,0,0,1,32,0v90.8c0,35.93,28.55,70.56,80.41,97.5C347.61,470.9,421.32,486.69,500,486.69s152.39-15.79,207.57-44.47c51.85-26.94,80.41-61.57,80.41-97.5v-90.8a16,16,0,0,1,16-16h0a16,16,0,0,1,16,16v90.8c0,48.46-34.68,93.17-97.66,125.9C662.67,501.62,583.71,518.69,500,518.69Z"></path>
</svg>
